<svg width="500" height="500" viewBox="0 0 500 500" fill="none" xmlns="http://www.w3.org/2000/svg">
<path d="M341.417 114L357.4 163.002L345.509 199.416L317.749 114H193.311L170.99 182.467L148.759 114H0L46.7317 189.886L110.749 386.523H231.209L255.417 312.188L279.559 386.523H411.347L500 114H341.417ZM63.3654 182.176L32.5705 132.185H135.542L161.414 211.87L117.223 347.613L63.3654 182.176ZM217.924 368.742H129.496L201.717 146.885L245.864 282.787L217.924 368.742ZM216.059 132.185H304.532L336.001 228.84L291.72 364.899L216.059 132.185ZM397.973 368.63H309.566L376.461 163.114L366.391 132.185H474.892L397.973 368.63Z" fill="#FFB612"/>
<path d="M335.933 228.863L291.651 364.923L216.058 132.186H304.532L335.933 228.863ZM366.39 132.186L376.415 163.115L309.522 368.632H397.927L474.937 132.186H366.39ZM135.541 132.186H32.5703L63.3651 182.176L117.312 347.614L161.414 211.87L135.541 132.186ZM129.496 368.632H218.036L245.976 282.788L201.717 146.886L129.496 368.632Z" fill="#5A1414"/>
</svg>
